<mxfile host="app.diagrams.net" modified="2020-10-15T11:47:55.212Z" agent="5.0 (Windows NT 10.0; Win64; x64) AppleWebKit/537.36 (KHTML, like Gecko) Chrome/86.0.4240.75 Safari/537.36" etag="gocFH_gyLMyxFGF9dOF5" version="13.7.9" type="github">
  <diagram id="79CZyGl81b-DOHCzq7t8" name="Page-1">
    <mxGraphModel dx="1422" dy="762" grid="1" gridSize="10" guides="1" tooltips="1" connect="1" arrows="1" fold="1" page="1" pageScale="1" pageWidth="1169" pageHeight="827" math="0" shadow="0">
      <root>
        <mxCell id="0" />
        <mxCell id="1" parent="0" />
        <object placeholders="1" c4Name="Demo Service" c4Type="ExecutionEnvironment" c4Application="Software System" label="&lt;div style=&quot;text-align: left&quot;&gt;%c4Name%&lt;/div&gt;&lt;div style=&quot;text-align: left&quot;&gt;[%c4Application%]&lt;/div&gt;" id="GImEivbMr_3VR4Qioquo-22">
          <mxCell style="rounded=0;whiteSpace=wrap;html=1;labelBackgroundColor=none;fillColor=#ffffff;fontColor=#000000;align=left;arcSize=5;strokeColor=#000000;verticalAlign=bottom;metaEdit=1;metaData={&quot;c4Type&quot;:{&quot;editable&quot;:false}};points=[[0.25,0,0],[0.5,0,0],[0.75,0,0],[1,0.25,0],[1,0.5,0],[1,0.75,0],[0.75,1,0],[0.5,1,0],[0.25,1,0],[0,0.75,0],[0,0.5,0],[0,0.25,0]];dashed=1;" vertex="1" parent="1">
            <mxGeometry x="890" y="710" width="1170" height="540" as="geometry" />
          </mxCell>
        </object>
        <mxCell id="eSKMdB9Mh126-QJrYxRr-10" value="claim service" style="ellipse;whiteSpace=wrap;html=1;aspect=fixed;fillColor=#dae8fc;strokeColor=#6c8ebf;" parent="1" vertex="1">
          <mxGeometry x="335" y="947" width="80" height="80" as="geometry" />
        </mxCell>
        <mxCell id="6SA6Cz4rasjYMu8Vp4-Y-1" value="Web" style="ellipse;whiteSpace=wrap;html=1;aspect=fixed;fillColor=#dae8fc;strokeColor=#6c8ebf;" parent="1" vertex="1">
          <mxGeometry x="80" y="120" width="80" height="80" as="geometry" />
        </mxCell>
        <mxCell id="6SA6Cz4rasjYMu8Vp4-Y-14" value="Req/Res&lt;br&gt;Http" style="edgeStyle=orthogonalEdgeStyle;rounded=0;orthogonalLoop=1;jettySize=auto;html=1;exitX=0.5;exitY=1;exitDx=0;exitDy=0;entryX=0;entryY=0.5;entryDx=0;entryDy=0;jumpStyle=none;curved=1;startArrow=classic;startFill=1;" parent="1" source="6SA6Cz4rasjYMu8Vp4-Y-3" target="6SA6Cz4rasjYMu8Vp4-Y-6" edge="1">
          <mxGeometry x="0.1667" y="10" relative="1" as="geometry">
            <mxPoint as="offset" />
          </mxGeometry>
        </mxCell>
        <mxCell id="6SA6Cz4rasjYMu8Vp4-Y-3" value="API Gateway" style="ellipse;whiteSpace=wrap;html=1;aspect=fixed;fillColor=#dae8fc;strokeColor=#6c8ebf;" parent="1" vertex="1">
          <mxGeometry x="240" y="120" width="80" height="80" as="geometry" />
        </mxCell>
        <mxCell id="ZEBDfa4W5BbnOJ2MSojY-12" value="Command&lt;br&gt;AWS MQ" style="edgeStyle=orthogonalEdgeStyle;curved=1;jumpStyle=arc;orthogonalLoop=1;jettySize=auto;html=1;exitX=1;exitY=0.5;exitDx=0;exitDy=0;entryX=0;entryY=0.5;entryDx=0;entryDy=0;" parent="1" source="6SA6Cz4rasjYMu8Vp4-Y-4" target="ZEBDfa4W5BbnOJ2MSojY-11" edge="1">
          <mxGeometry relative="1" as="geometry" />
        </mxCell>
        <mxCell id="6SA6Cz4rasjYMu8Vp4-Y-4" value="Calculation" style="ellipse;whiteSpace=wrap;html=1;aspect=fixed;fillColor=#dae8fc;strokeColor=#6c8ebf;" parent="1" vertex="1">
          <mxGeometry x="640" y="40" width="80" height="80" as="geometry" />
        </mxCell>
        <mxCell id="6SA6Cz4rasjYMu8Vp4-Y-5" value="Payment" style="ellipse;whiteSpace=wrap;html=1;aspect=fixed;fillColor=#dae8fc;strokeColor=#6c8ebf;" parent="1" vertex="1">
          <mxGeometry x="640" y="200" width="80" height="80" as="geometry" />
        </mxCell>
        <mxCell id="ZEBDfa4W5BbnOJ2MSojY-4" value="Command&lt;br&gt;AWS MQ" style="edgeStyle=orthogonalEdgeStyle;jumpStyle=arc;orthogonalLoop=1;jettySize=auto;html=1;exitX=0.5;exitY=1;exitDx=0;exitDy=0;entryX=0;entryY=0.5;entryDx=0;entryDy=0;curved=1;" parent="1" source="6SA6Cz4rasjYMu8Vp4-Y-6" target="ZEBDfa4W5BbnOJ2MSojY-6" edge="1">
          <mxGeometry relative="1" as="geometry">
            <mxPoint x="510" y="230" as="targetPoint" />
          </mxGeometry>
        </mxCell>
        <mxCell id="ZEBDfa4W5BbnOJ2MSojY-9" style="edgeStyle=orthogonalEdgeStyle;curved=1;jumpStyle=arc;orthogonalLoop=1;jettySize=auto;html=1;exitX=0.5;exitY=0;exitDx=0;exitDy=0;entryX=0;entryY=0.5;entryDx=0;entryDy=0;" parent="1" source="6SA6Cz4rasjYMu8Vp4-Y-6" target="6SA6Cz4rasjYMu8Vp4-Y-11" edge="1">
          <mxGeometry relative="1" as="geometry" />
        </mxCell>
        <mxCell id="mvozt7myXP1CyJeJYNwe-5" value="Command&lt;br&gt;AWS MQ" style="text;html=1;align=center;verticalAlign=middle;resizable=0;points=[];;labelBackgroundColor=#ffffff;fontColor=#000000;" parent="ZEBDfa4W5BbnOJ2MSojY-9" vertex="1" connectable="0">
          <mxGeometry x="-0.465" y="-23" relative="1" as="geometry">
            <mxPoint as="offset" />
          </mxGeometry>
        </mxCell>
        <mxCell id="6SA6Cz4rasjYMu8Vp4-Y-6" value="Claim" style="ellipse;whiteSpace=wrap;html=1;aspect=fixed;fillColor=#dae8fc;strokeColor=#6c8ebf;" parent="1" vertex="1">
          <mxGeometry x="360" y="200" width="80" height="80" as="geometry" />
        </mxCell>
        <mxCell id="6SA6Cz4rasjYMu8Vp4-Y-7" value="User" style="ellipse;whiteSpace=wrap;html=1;aspect=fixed;fillColor=#dae8fc;strokeColor=#6c8ebf;" parent="1" vertex="1">
          <mxGeometry x="360" y="40" width="80" height="80" as="geometry" />
        </mxCell>
        <mxCell id="6SA6Cz4rasjYMu8Vp4-Y-8" value="" style="shape=cylinder;whiteSpace=wrap;html=1;boundedLbl=1;backgroundOutline=1;fillColor=#fff2cc;strokeColor=#d6b656;" parent="1" vertex="1">
          <mxGeometry x="705" y="240" width="30" height="40" as="geometry" />
        </mxCell>
        <mxCell id="6SA6Cz4rasjYMu8Vp4-Y-9" value="" style="shape=cylinder;whiteSpace=wrap;html=1;boundedLbl=1;backgroundOutline=1;fillColor=#fff2cc;strokeColor=#d6b656;" parent="1" vertex="1">
          <mxGeometry x="425" y="240" width="30" height="40" as="geometry" />
        </mxCell>
        <mxCell id="6SA6Cz4rasjYMu8Vp4-Y-10" value="" style="shape=cylinder;whiteSpace=wrap;html=1;boundedLbl=1;backgroundOutline=1;fillColor=#fff2cc;strokeColor=#d6b656;" parent="1" vertex="1">
          <mxGeometry x="425" y="80" width="30" height="40" as="geometry" />
        </mxCell>
        <mxCell id="ZEBDfa4W5BbnOJ2MSojY-10" style="edgeStyle=orthogonalEdgeStyle;curved=1;jumpStyle=arc;orthogonalLoop=1;jettySize=auto;html=1;exitX=1;exitY=0.5;exitDx=0;exitDy=0;entryX=0;entryY=0.5;entryDx=0;entryDy=0;" parent="1" source="6SA6Cz4rasjYMu8Vp4-Y-11" target="6SA6Cz4rasjYMu8Vp4-Y-4" edge="1">
          <mxGeometry relative="1" as="geometry" />
        </mxCell>
        <mxCell id="6SA6Cz4rasjYMu8Vp4-Y-11" value="Calculation" style="rounded=1;whiteSpace=wrap;html=1;fillColor=#e1d5e7;strokeColor=#9673a6;arcSize=50;rotation=0;" parent="1" vertex="1">
          <mxGeometry x="502.5" y="130" width="95" height="20" as="geometry" />
        </mxCell>
        <mxCell id="6SA6Cz4rasjYMu8Vp4-Y-12" value="" style="endArrow=classic;html=1;exitX=1;exitY=0.5;exitDx=0;exitDy=0;entryX=0;entryY=0.5;entryDx=0;entryDy=0;jumpStyle=none;startArrow=classic;startFill=1;fontColor=#000000;strokeColor=#000000;" parent="1" source="6SA6Cz4rasjYMu8Vp4-Y-1" target="6SA6Cz4rasjYMu8Vp4-Y-3" edge="1">
          <mxGeometry width="50" height="50" relative="1" as="geometry">
            <mxPoint x="80" y="350" as="sourcePoint" />
            <mxPoint x="130" y="300" as="targetPoint" />
          </mxGeometry>
        </mxCell>
        <mxCell id="mvozt7myXP1CyJeJYNwe-1" value="Req/Res&lt;br&gt;Http" style="text;html=1;align=center;verticalAlign=middle;resizable=0;points=[];;labelBackgroundColor=#ffffff;fontColor=#000000;" parent="6SA6Cz4rasjYMu8Vp4-Y-12" vertex="1" connectable="0">
          <mxGeometry x="0.32" relative="1" as="geometry">
            <mxPoint x="-13" as="offset" />
          </mxGeometry>
        </mxCell>
        <mxCell id="6SA6Cz4rasjYMu8Vp4-Y-13" value="Req/Res&lt;br&gt;Http" style="edgeStyle=orthogonalEdgeStyle;rounded=0;orthogonalLoop=1;jettySize=auto;html=1;exitX=0.5;exitY=0;exitDx=0;exitDy=0;entryX=0;entryY=0.5;entryDx=0;entryDy=0;jumpStyle=none;curved=1;startArrow=classic;startFill=1;" parent="1" source="6SA6Cz4rasjYMu8Vp4-Y-3" target="6SA6Cz4rasjYMu8Vp4-Y-7" edge="1">
          <mxGeometry x="0.1667" relative="1" as="geometry">
            <mxPoint as="offset" />
          </mxGeometry>
        </mxCell>
        <mxCell id="ZEBDfa4W5BbnOJ2MSojY-8" style="edgeStyle=orthogonalEdgeStyle;jumpStyle=arc;orthogonalLoop=1;jettySize=auto;html=1;exitX=1;exitY=0.5;exitDx=0;exitDy=0;curved=1;" parent="1" source="ZEBDfa4W5BbnOJ2MSojY-6" target="6SA6Cz4rasjYMu8Vp4-Y-5" edge="1">
          <mxGeometry relative="1" as="geometry" />
        </mxCell>
        <mxCell id="ZEBDfa4W5BbnOJ2MSojY-6" value="Schedule" style="rounded=1;whiteSpace=wrap;html=1;fillColor=#e1d5e7;strokeColor=#9673a6;arcSize=50;rotation=0;" parent="1" vertex="1">
          <mxGeometry x="502.5" y="230" width="95" height="20" as="geometry" />
        </mxCell>
        <mxCell id="ZEBDfa4W5BbnOJ2MSojY-13" style="edgeStyle=orthogonalEdgeStyle;curved=1;jumpStyle=arc;orthogonalLoop=1;jettySize=auto;html=1;exitX=1;exitY=0.5;exitDx=0;exitDy=0;entryX=0.5;entryY=0;entryDx=0;entryDy=0;" parent="1" source="ZEBDfa4W5BbnOJ2MSojY-11" target="6SA6Cz4rasjYMu8Vp4-Y-5" edge="1">
          <mxGeometry relative="1" as="geometry" />
        </mxCell>
        <mxCell id="ZEBDfa4W5BbnOJ2MSojY-11" value="Payment" style="rounded=1;whiteSpace=wrap;html=1;fillColor=#e1d5e7;strokeColor=#9673a6;arcSize=50;rotation=90;" parent="1" vertex="1">
          <mxGeometry x="720" y="157" width="95" height="20" as="geometry" />
        </mxCell>
        <mxCell id="ZEBDfa4W5BbnOJ2MSojY-15" value="Current FFC Demo Service" style="text;html=1;strokeColor=none;fillColor=none;align=left;verticalAlign=middle;whiteSpace=wrap;rounded=0;fontStyle=1" parent="1" vertex="1">
          <mxGeometry x="80" y="40" width="200" height="20" as="geometry" />
        </mxCell>
        <mxCell id="mvozt7myXP1CyJeJYNwe-2" value="Command&lt;br&gt;SQS" style="edgeStyle=orthogonalEdgeStyle;curved=1;jumpStyle=arc;orthogonalLoop=1;jettySize=auto;html=1;exitX=1;exitY=0.5;exitDx=0;exitDy=0;strokeColor=#000000;fontColor=#000000;entryX=0;entryY=0.5;entryDx=0;entryDy=0;" parent="1" edge="1">
          <mxGeometry relative="1" as="geometry">
            <mxPoint x="241" y="560" as="targetPoint" />
            <mxPoint x="161" y="560" as="sourcePoint" />
          </mxGeometry>
        </mxCell>
        <mxCell id="ZEBDfa4W5BbnOJ2MSojY-16" value="Web" style="ellipse;whiteSpace=wrap;html=1;aspect=fixed;fillColor=#dae8fc;strokeColor=#6c8ebf;" parent="1" vertex="1">
          <mxGeometry x="80" y="520" width="80" height="80" as="geometry" />
        </mxCell>
        <mxCell id="ZEBDfa4W5BbnOJ2MSojY-19" style="edgeStyle=orthogonalEdgeStyle;curved=1;jumpStyle=arc;orthogonalLoop=1;jettySize=auto;html=1;exitX=1;exitY=0.5;exitDx=0;exitDy=0;entryX=0;entryY=0.5;entryDx=0;entryDy=0;" parent="1" source="ZEBDfa4W5BbnOJ2MSojY-20" target="ZEBDfa4W5BbnOJ2MSojY-36" edge="1">
          <mxGeometry relative="1" as="geometry" />
        </mxCell>
        <mxCell id="mvozt7myXP1CyJeJYNwe-6" value="Command&lt;br&gt;SQS" style="text;html=1;align=center;verticalAlign=middle;resizable=0;points=[];;labelBackgroundColor=#ffffff;fontColor=#000000;" parent="ZEBDfa4W5BbnOJ2MSojY-19" vertex="1" connectable="0">
          <mxGeometry x="-0.2091" y="-8" relative="1" as="geometry">
            <mxPoint x="5" y="-8" as="offset" />
          </mxGeometry>
        </mxCell>
        <mxCell id="vAvHgq-_hcIPcLRzZH9O-8" value="Query&lt;br&gt;gRPC" style="edgeStyle=orthogonalEdgeStyle;curved=1;orthogonalLoop=1;jettySize=auto;html=1;exitX=1;exitY=0;exitDx=0;exitDy=0;entryX=0.5;entryY=0;entryDx=0;entryDy=0;" parent="1" source="ZEBDfa4W5BbnOJ2MSojY-20" target="ZEBDfa4W5BbnOJ2MSojY-24" edge="1">
          <mxGeometry relative="1" as="geometry">
            <Array as="points">
              <mxPoint x="708" y="400" />
              <mxPoint x="399" y="400" />
            </Array>
          </mxGeometry>
        </mxCell>
        <mxCell id="ZEBDfa4W5BbnOJ2MSojY-20" value="Calculation" style="ellipse;whiteSpace=wrap;html=1;aspect=fixed;fillColor=#dae8fc;strokeColor=#6c8ebf;" parent="1" vertex="1">
          <mxGeometry x="640" y="440" width="80" height="80" as="geometry" />
        </mxCell>
        <mxCell id="ZEBDfa4W5BbnOJ2MSojY-21" value="Payment" style="ellipse;whiteSpace=wrap;html=1;aspect=fixed;fillColor=#dae8fc;strokeColor=#6c8ebf;" parent="1" vertex="1">
          <mxGeometry x="640" y="600" width="80" height="80" as="geometry" />
        </mxCell>
        <mxCell id="ZEBDfa4W5BbnOJ2MSojY-22" value="Event&lt;br&gt;SNS" style="edgeStyle=orthogonalEdgeStyle;jumpStyle=arc;orthogonalLoop=1;jettySize=auto;html=1;exitX=0.5;exitY=1;exitDx=0;exitDy=0;entryX=0;entryY=0.5;entryDx=0;entryDy=0;curved=1;" parent="1" source="ZEBDfa4W5BbnOJ2MSojY-24" target="vAvHgq-_hcIPcLRzZH9O-2" edge="1">
          <mxGeometry x="-0.105" relative="1" as="geometry">
            <mxPoint x="510" y="630" as="targetPoint" />
            <Array as="points">
              <mxPoint x="399" y="620" />
              <mxPoint x="475" y="620" />
              <mxPoint x="475" y="560" />
            </Array>
            <mxPoint as="offset" />
          </mxGeometry>
        </mxCell>
        <mxCell id="ZEBDfa4W5BbnOJ2MSojY-24" value="Claim" style="ellipse;whiteSpace=wrap;html=1;aspect=fixed;fillColor=#dae8fc;strokeColor=#6c8ebf;" parent="1" vertex="1">
          <mxGeometry x="359" y="520" width="80" height="80" as="geometry" />
        </mxCell>
        <mxCell id="ZEBDfa4W5BbnOJ2MSojY-26" value="" style="shape=cylinder;whiteSpace=wrap;html=1;boundedLbl=1;backgroundOutline=1;fillColor=#fff2cc;strokeColor=#d6b656;" parent="1" vertex="1">
          <mxGeometry x="705" y="640" width="30" height="40" as="geometry" />
        </mxCell>
        <mxCell id="ZEBDfa4W5BbnOJ2MSojY-27" value="" style="shape=cylinder;whiteSpace=wrap;html=1;boundedLbl=1;backgroundOutline=1;fillColor=#fff2cc;strokeColor=#d6b656;" parent="1" vertex="1">
          <mxGeometry x="424" y="560" width="30" height="40" as="geometry" />
        </mxCell>
        <mxCell id="ZEBDfa4W5BbnOJ2MSojY-33" value="SQS" style="edgeStyle=orthogonalEdgeStyle;jumpStyle=arc;orthogonalLoop=1;jettySize=auto;html=1;exitX=0.5;exitY=1;exitDx=0;exitDy=0;curved=1;entryX=0;entryY=0.5;entryDx=0;entryDy=0;" parent="1" source="vAvHgq-_hcIPcLRzZH9O-2" target="ZEBDfa4W5BbnOJ2MSojY-34" edge="1">
          <mxGeometry x="-0.0511" y="-5" relative="1" as="geometry">
            <mxPoint as="offset" />
          </mxGeometry>
        </mxCell>
        <mxCell id="mvozt7myXP1CyJeJYNwe-7" value="SQS" style="edgeStyle=orthogonalEdgeStyle;curved=1;jumpStyle=arc;orthogonalLoop=1;jettySize=auto;html=1;exitX=0.5;exitY=0;exitDx=0;exitDy=0;entryX=0;entryY=0.5;entryDx=0;entryDy=0;strokeColor=#000000;fontColor=#000000;" parent="1" source="vAvHgq-_hcIPcLRzZH9O-2" target="vAvHgq-_hcIPcLRzZH9O-6" edge="1">
          <mxGeometry relative="1" as="geometry" />
        </mxCell>
        <mxCell id="vAvHgq-_hcIPcLRzZH9O-5" style="edgeStyle=orthogonalEdgeStyle;orthogonalLoop=1;jettySize=auto;html=1;exitX=1;exitY=0.5;exitDx=0;exitDy=0;entryX=0.5;entryY=1;entryDx=0;entryDy=0;curved=1;" parent="1" source="ZEBDfa4W5BbnOJ2MSojY-34" target="ZEBDfa4W5BbnOJ2MSojY-21" edge="1">
          <mxGeometry relative="1" as="geometry" />
        </mxCell>
        <mxCell id="ZEBDfa4W5BbnOJ2MSojY-34" value="Schedule" style="rounded=1;whiteSpace=wrap;html=1;fillColor=#e1d5e7;strokeColor=#9673a6;arcSize=50;rotation=0;" parent="1" vertex="1">
          <mxGeometry x="512.5" y="650" width="95" height="20" as="geometry" />
        </mxCell>
        <mxCell id="ZEBDfa4W5BbnOJ2MSojY-35" style="edgeStyle=orthogonalEdgeStyle;curved=1;jumpStyle=arc;orthogonalLoop=1;jettySize=auto;html=1;exitX=1;exitY=0.5;exitDx=0;exitDy=0;entryX=0.5;entryY=0;entryDx=0;entryDy=0;" parent="1" source="ZEBDfa4W5BbnOJ2MSojY-36" target="ZEBDfa4W5BbnOJ2MSojY-21" edge="1">
          <mxGeometry relative="1" as="geometry" />
        </mxCell>
        <mxCell id="ZEBDfa4W5BbnOJ2MSojY-36" value="Payment" style="rounded=1;whiteSpace=wrap;html=1;fillColor=#e1d5e7;strokeColor=#9673a6;arcSize=50;rotation=90;" parent="1" vertex="1">
          <mxGeometry x="720" y="557" width="95" height="20" as="geometry" />
        </mxCell>
        <mxCell id="ZEBDfa4W5BbnOJ2MSojY-37" value="Proposed FFC Demo Service" style="text;html=1;strokeColor=none;fillColor=none;align=left;verticalAlign=middle;whiteSpace=wrap;rounded=0;fontStyle=1" parent="1" vertex="1">
          <mxGeometry x="80" y="440" width="200" height="20" as="geometry" />
        </mxCell>
        <mxCell id="mvozt7myXP1CyJeJYNwe-4" style="edgeStyle=orthogonalEdgeStyle;curved=1;jumpStyle=arc;orthogonalLoop=1;jettySize=auto;html=1;exitX=1;exitY=0.5;exitDx=0;exitDy=0;entryX=0;entryY=0.5;entryDx=0;entryDy=0;strokeColor=#000000;fontColor=#000000;" parent="1" source="mvozt7myXP1CyJeJYNwe-3" target="ZEBDfa4W5BbnOJ2MSojY-24" edge="1">
          <mxGeometry relative="1" as="geometry" />
        </mxCell>
        <mxCell id="mvozt7myXP1CyJeJYNwe-3" value="Claim" style="rounded=1;whiteSpace=wrap;html=1;fillColor=#e1d5e7;strokeColor=#9673a6;arcSize=50;rotation=0;" parent="1" vertex="1">
          <mxGeometry x="240" y="550" width="95" height="20" as="geometry" />
        </mxCell>
        <mxCell id="vAvHgq-_hcIPcLRzZH9O-1" value="Queue" style="rounded=1;whiteSpace=wrap;html=1;fillColor=#e1d5e7;strokeColor=#9673a6;arcSize=50;rotation=0;" parent="1" vertex="1">
          <mxGeometry x="72.5" y="353" width="95" height="20" as="geometry" />
        </mxCell>
        <mxCell id="vAvHgq-_hcIPcLRzZH9O-2" value="New Claim" style="shape=hexagon;perimeter=hexagonPerimeter2;whiteSpace=wrap;html=1;fillColor=#f8cecc;strokeColor=#b85450;" parent="1" vertex="1">
          <mxGeometry x="500" y="540" width="60" height="40" as="geometry" />
        </mxCell>
        <mxCell id="vAvHgq-_hcIPcLRzZH9O-3" value="Topic" style="shape=hexagon;perimeter=hexagonPerimeter2;whiteSpace=wrap;html=1;fillColor=#f8cecc;strokeColor=#b85450;" parent="1" vertex="1">
          <mxGeometry x="90" y="373" width="60" height="40" as="geometry" />
        </mxCell>
        <mxCell id="vAvHgq-_hcIPcLRzZH9O-7" style="edgeStyle=orthogonalEdgeStyle;curved=1;orthogonalLoop=1;jettySize=auto;html=1;exitX=1;exitY=0.5;exitDx=0;exitDy=0;" parent="1" source="vAvHgq-_hcIPcLRzZH9O-6" edge="1">
          <mxGeometry relative="1" as="geometry">
            <mxPoint x="680" y="440" as="targetPoint" />
            <Array as="points">
              <mxPoint x="632" y="420" />
              <mxPoint x="680" y="420" />
            </Array>
          </mxGeometry>
        </mxCell>
        <mxCell id="vAvHgq-_hcIPcLRzZH9O-6" value="Calculation" style="rounded=1;whiteSpace=wrap;html=1;fillColor=#e1d5e7;strokeColor=#9673a6;arcSize=50;rotation=0;" parent="1" vertex="1">
          <mxGeometry x="512.5" y="450" width="95" height="20" as="geometry" />
        </mxCell>
        <mxCell id="eSKMdB9Mh126-QJrYxRr-26" value="command " style="edgeStyle=orthogonalEdgeStyle;rounded=0;orthogonalLoop=1;jettySize=auto;html=1;" parent="1" source="eSKMdB9Mh126-QJrYxRr-1" target="eSKMdB9Mh126-QJrYxRr-25" edge="1">
          <mxGeometry y="17" relative="1" as="geometry">
            <mxPoint as="offset" />
          </mxGeometry>
        </mxCell>
        <mxCell id="eSKMdB9Mh126-QJrYxRr-1" value="web" style="ellipse;whiteSpace=wrap;html=1;aspect=fixed;fillColor=#dae8fc;strokeColor=#6c8ebf;" parent="1" vertex="1">
          <mxGeometry x="50" y="947" width="80" height="80" as="geometry" />
        </mxCell>
        <mxCell id="eSKMdB9Mh126-QJrYxRr-4" value="command" style="edgeStyle=orthogonalEdgeStyle;curved=1;jumpStyle=arc;orthogonalLoop=1;jettySize=auto;html=1;exitX=1;exitY=0.5;exitDx=0;exitDy=0;entryX=0;entryY=0.5;entryDx=0;entryDy=0;" parent="1" source="eSKMdB9Mh126-QJrYxRr-5" target="eSKMdB9Mh126-QJrYxRr-23" edge="1">
          <mxGeometry relative="1" as="geometry" />
        </mxCell>
        <mxCell id="eSKMdB9Mh126-QJrYxRr-5" value="calculation service" style="ellipse;whiteSpace=wrap;html=1;aspect=fixed;fillColor=#dae8fc;strokeColor=#6c8ebf;" parent="1" vertex="1">
          <mxGeometry x="640" y="840" width="80" height="80" as="geometry" />
        </mxCell>
        <mxCell id="eSKMdB9Mh126-QJrYxRr-6" value="payment service&lt;br&gt;(Node.js)" style="ellipse;whiteSpace=wrap;html=1;aspect=fixed;fillColor=#dae8fc;strokeColor=#6c8ebf;" parent="1" vertex="1">
          <mxGeometry x="640" y="1000" width="80" height="80" as="geometry" />
        </mxCell>
        <mxCell id="eSKMdB9Mh126-QJrYxRr-7" value="command" style="edgeStyle=orthogonalEdgeStyle;jumpStyle=arc;orthogonalLoop=1;jettySize=auto;html=1;exitX=0.5;exitY=1;exitDx=0;exitDy=0;entryX=0;entryY=0.5;entryDx=0;entryDy=0;curved=1;" parent="1" source="eSKMdB9Mh126-QJrYxRr-10" target="eSKMdB9Mh126-QJrYxRr-21" edge="1">
          <mxGeometry x="-0.288" relative="1" as="geometry">
            <mxPoint x="510" y="1030" as="targetPoint" />
            <mxPoint as="offset" />
          </mxGeometry>
        </mxCell>
        <mxCell id="eSKMdB9Mh126-QJrYxRr-8" style="edgeStyle=orthogonalEdgeStyle;curved=1;jumpStyle=arc;orthogonalLoop=1;jettySize=auto;html=1;exitX=0.5;exitY=0;exitDx=0;exitDy=0;entryX=0;entryY=0.5;entryDx=0;entryDy=0;" parent="1" source="eSKMdB9Mh126-QJrYxRr-10" target="eSKMdB9Mh126-QJrYxRr-16" edge="1">
          <mxGeometry relative="1" as="geometry" />
        </mxCell>
        <mxCell id="eSKMdB9Mh126-QJrYxRr-9" value="command" style="text;html=1;align=center;verticalAlign=middle;resizable=0;points=[];;labelBackgroundColor=#ffffff;fontColor=#000000;" parent="eSKMdB9Mh126-QJrYxRr-8" vertex="1" connectable="0">
          <mxGeometry x="-0.465" y="-23" relative="1" as="geometry">
            <mxPoint x="16.67" y="-30" as="offset" />
          </mxGeometry>
        </mxCell>
        <mxCell id="eSKMdB9Mh126-QJrYxRr-12" value="" style="shape=cylinder;whiteSpace=wrap;html=1;boundedLbl=1;backgroundOutline=1;fillColor=#fff2cc;strokeColor=#d6b656;" parent="1" vertex="1">
          <mxGeometry x="720" y="1040" width="30" height="40" as="geometry" />
        </mxCell>
        <mxCell id="eSKMdB9Mh126-QJrYxRr-13" value="" style="shape=cylinder;whiteSpace=wrap;html=1;boundedLbl=1;backgroundOutline=1;fillColor=#fff2cc;strokeColor=#d6b656;" parent="1" vertex="1">
          <mxGeometry x="415" y="987" width="30" height="40" as="geometry" />
        </mxCell>
        <mxCell id="eSKMdB9Mh126-QJrYxRr-15" style="edgeStyle=orthogonalEdgeStyle;curved=1;jumpStyle=arc;orthogonalLoop=1;jettySize=auto;html=1;exitX=1;exitY=0.5;exitDx=0;exitDy=0;entryX=0;entryY=0.5;entryDx=0;entryDy=0;" parent="1" source="eSKMdB9Mh126-QJrYxRr-16" target="eSKMdB9Mh126-QJrYxRr-5" edge="1">
          <mxGeometry relative="1" as="geometry" />
        </mxCell>
        <mxCell id="eSKMdB9Mh126-QJrYxRr-16" value="calculation" style="rounded=1;whiteSpace=wrap;html=1;fillColor=#e1d5e7;strokeColor=#9673a6;arcSize=50;rotation=0;" parent="1" vertex="1">
          <mxGeometry x="502.5" y="930" width="95" height="20" as="geometry" />
        </mxCell>
        <mxCell id="eSKMdB9Mh126-QJrYxRr-20" style="edgeStyle=orthogonalEdgeStyle;jumpStyle=arc;orthogonalLoop=1;jettySize=auto;html=1;exitX=1;exitY=0.5;exitDx=0;exitDy=0;curved=1;" parent="1" source="eSKMdB9Mh126-QJrYxRr-21" target="eSKMdB9Mh126-QJrYxRr-6" edge="1">
          <mxGeometry relative="1" as="geometry" />
        </mxCell>
        <mxCell id="eSKMdB9Mh126-QJrYxRr-33" style="edgeStyle=orthogonalEdgeStyle;orthogonalLoop=1;jettySize=auto;html=1;entryX=0;entryY=0.5;entryDx=0;entryDy=0;curved=1;" parent="1" source="eSKMdB9Mh126-QJrYxRr-21" target="eSKMdB9Mh126-QJrYxRr-30" edge="1">
          <mxGeometry relative="1" as="geometry" />
        </mxCell>
        <mxCell id="eSKMdB9Mh126-QJrYxRr-21" value="schedule" style="rounded=1;whiteSpace=wrap;html=1;fillColor=#e1d5e7;strokeColor=#9673a6;arcSize=50;rotation=0;" parent="1" vertex="1">
          <mxGeometry x="502.5" y="1030" width="95" height="20" as="geometry" />
        </mxCell>
        <mxCell id="eSKMdB9Mh126-QJrYxRr-22" style="edgeStyle=orthogonalEdgeStyle;curved=1;jumpStyle=arc;orthogonalLoop=1;jettySize=auto;html=1;exitX=1;exitY=0.5;exitDx=0;exitDy=0;entryX=0.5;entryY=0;entryDx=0;entryDy=0;" parent="1" source="eSKMdB9Mh126-QJrYxRr-23" target="eSKMdB9Mh126-QJrYxRr-6" edge="1">
          <mxGeometry relative="1" as="geometry" />
        </mxCell>
        <mxCell id="eSKMdB9Mh126-QJrYxRr-23" value="payment" style="rounded=1;whiteSpace=wrap;html=1;fillColor=#e1d5e7;strokeColor=#9673a6;arcSize=50;rotation=90;" parent="1" vertex="1">
          <mxGeometry x="720" y="957" width="95" height="20" as="geometry" />
        </mxCell>
        <mxCell id="eSKMdB9Mh126-QJrYxRr-24" value="Platform Demo Service" style="text;html=1;strokeColor=none;fillColor=none;align=left;verticalAlign=middle;whiteSpace=wrap;rounded=0;fontStyle=1" parent="1" vertex="1">
          <mxGeometry x="50" y="870" width="200" height="20" as="geometry" />
        </mxCell>
        <mxCell id="eSKMdB9Mh126-QJrYxRr-27" value="" style="edgeStyle=orthogonalEdgeStyle;rounded=0;orthogonalLoop=1;jettySize=auto;html=1;" parent="1" source="eSKMdB9Mh126-QJrYxRr-25" target="eSKMdB9Mh126-QJrYxRr-10" edge="1">
          <mxGeometry relative="1" as="geometry" />
        </mxCell>
        <mxCell id="eSKMdB9Mh126-QJrYxRr-25" value="claim" style="rounded=1;whiteSpace=wrap;html=1;fillColor=#e1d5e7;strokeColor=#9673a6;arcSize=50;rotation=0;" parent="1" vertex="1">
          <mxGeometry x="210" y="977" width="95" height="20" as="geometry" />
        </mxCell>
        <mxCell id="eSKMdB9Mh126-QJrYxRr-29" value="http get" style="edgeStyle=orthogonalEdgeStyle;orthogonalLoop=1;jettySize=auto;html=1;entryX=0.5;entryY=1;entryDx=0;entryDy=0;curved=1;startArrow=classic;startFill=1;" parent="1" source="eSKMdB9Mh126-QJrYxRr-28" target="eSKMdB9Mh126-QJrYxRr-6" edge="1">
          <mxGeometry relative="1" as="geometry">
            <mxPoint x="370" y="1140" as="targetPoint" />
          </mxGeometry>
        </mxCell>
        <mxCell id="eSKMdB9Mh126-QJrYxRr-28" value="payment web" style="ellipse;whiteSpace=wrap;html=1;aspect=fixed;fillColor=#dae8fc;strokeColor=#6c8ebf;" parent="1" vertex="1">
          <mxGeometry x="50" y="1080" width="80" height="80" as="geometry" />
        </mxCell>
        <mxCell id="eSKMdB9Mh126-QJrYxRr-30" value="payment service&lt;br&gt;(.Net Core)" style="ellipse;whiteSpace=wrap;html=1;aspect=fixed;fillColor=#dae8fc;strokeColor=#6c8ebf;" parent="1" vertex="1">
          <mxGeometry x="640" y="1120" width="80" height="80" as="geometry" />
        </mxCell>
        <mxCell id="eSKMdB9Mh126-QJrYxRr-31" value="" style="shape=cylinder;whiteSpace=wrap;html=1;boundedLbl=1;backgroundOutline=1;fillColor=#fff2cc;strokeColor=#d6b656;" parent="1" vertex="1">
          <mxGeometry x="720" y="1160" width="30" height="40" as="geometry" />
        </mxCell>
        <mxCell id="VIoWFmFOxt6bn29Lq37C-26" value="&quot;Hey, calculate this new claim&quot;" style="edgeStyle=orthogonalEdgeStyle;rounded=0;orthogonalLoop=1;jettySize=auto;html=1;entryX=0;entryY=0.5;entryDx=0;entryDy=0;curved=1;" parent="1" source="VIoWFmFOxt6bn29Lq37C-1" target="VIoWFmFOxt6bn29Lq37C-5" edge="1">
          <mxGeometry relative="1" as="geometry" />
        </mxCell>
        <mxCell id="VIoWFmFOxt6bn29Lq37C-54" style="edgeStyle=orthogonalEdgeStyle;curved=1;rounded=0;orthogonalLoop=1;jettySize=auto;html=1;fontSize=11;" parent="1" source="VIoWFmFOxt6bn29Lq37C-1" target="VIoWFmFOxt6bn29Lq37C-6" edge="1">
          <mxGeometry relative="1" as="geometry" />
        </mxCell>
        <mxCell id="VIoWFmFOxt6bn29Lq37C-1" value="claim service" style="ellipse;whiteSpace=wrap;html=1;aspect=fixed;fillColor=#dae8fc;strokeColor=#6c8ebf;" parent="1" vertex="1">
          <mxGeometry x="295" y="1348" width="80" height="80" as="geometry" />
        </mxCell>
        <mxCell id="VIoWFmFOxt6bn29Lq37C-2" value="&quot;Hey, save this new claim&quot;" style="edgeStyle=orthogonalEdgeStyle;rounded=0;orthogonalLoop=1;jettySize=auto;html=1;entryX=0;entryY=0.5;entryDx=0;entryDy=0;" parent="1" source="VIoWFmFOxt6bn29Lq37C-3" target="VIoWFmFOxt6bn29Lq37C-1" edge="1">
          <mxGeometry y="17" relative="1" as="geometry">
            <mxPoint as="offset" />
            <mxPoint x="210" y="1388" as="targetPoint" />
          </mxGeometry>
        </mxCell>
        <mxCell id="VIoWFmFOxt6bn29Lq37C-3" value="web" style="ellipse;whiteSpace=wrap;html=1;aspect=fixed;fillColor=#dae8fc;strokeColor=#6c8ebf;" parent="1" vertex="1">
          <mxGeometry x="50" y="1348" width="80" height="80" as="geometry" />
        </mxCell>
        <mxCell id="VIoWFmFOxt6bn29Lq37C-31" style="edgeStyle=orthogonalEdgeStyle;curved=1;rounded=0;orthogonalLoop=1;jettySize=auto;html=1;exitX=0.5;exitY=1;exitDx=0;exitDy=0;entryX=1;entryY=0.5;entryDx=0;entryDy=0;fontSize=11;" parent="1" source="VIoWFmFOxt6bn29Lq37C-5" target="VIoWFmFOxt6bn29Lq37C-24" edge="1">
          <mxGeometry relative="1" as="geometry" />
        </mxCell>
        <mxCell id="VIoWFmFOxt6bn29Lq37C-5" value="calculation service" style="ellipse;whiteSpace=wrap;html=1;aspect=fixed;fillColor=#dae8fc;strokeColor=#6c8ebf;" parent="1" vertex="1">
          <mxGeometry x="800" y="1271" width="80" height="80" as="geometry" />
        </mxCell>
        <mxCell id="VIoWFmFOxt6bn29Lq37C-6" value="payment service&lt;br&gt;(Node.js)" style="ellipse;whiteSpace=wrap;html=1;aspect=fixed;fillColor=#dae8fc;strokeColor=#6c8ebf;" parent="1" vertex="1">
          <mxGeometry x="600" y="1421" width="80" height="80" as="geometry" />
        </mxCell>
        <mxCell id="VIoWFmFOxt6bn29Lq37C-19" value="Message Demo Service" style="text;html=1;strokeColor=none;fillColor=none;align=left;verticalAlign=middle;whiteSpace=wrap;rounded=0;fontStyle=1" parent="1" vertex="1">
          <mxGeometry x="50" y="1271" width="200" height="20" as="geometry" />
        </mxCell>
        <mxCell id="VIoWFmFOxt6bn29Lq37C-24" value="payment service&lt;br&gt;(.Net Core)" style="ellipse;whiteSpace=wrap;html=1;aspect=fixed;fillColor=#dae8fc;strokeColor=#6c8ebf;" parent="1" vertex="1">
          <mxGeometry x="600" y="1541" width="80" height="80" as="geometry" />
        </mxCell>
        <mxCell id="VIoWFmFOxt6bn29Lq37C-28" value="" style="endArrow=classic;html=1;exitX=1;exitY=0.5;exitDx=0;exitDy=0;entryX=0;entryY=0.5;entryDx=0;entryDy=0;edgeStyle=orthogonalEdgeStyle;curved=1;" parent="1" source="VIoWFmFOxt6bn29Lq37C-1" target="VIoWFmFOxt6bn29Lq37C-24" edge="1">
          <mxGeometry width="50" height="50" relative="1" as="geometry">
            <mxPoint x="520" y="1320" as="sourcePoint" />
            <mxPoint x="570" y="1270" as="targetPoint" />
          </mxGeometry>
        </mxCell>
        <mxCell id="VIoWFmFOxt6bn29Lq37C-29" value="&quot;Hey, one of you schedule a payment for this claim&quot;" style="text;html=1;strokeColor=none;fillColor=none;align=center;verticalAlign=middle;whiteSpace=wrap;rounded=0;fontSize=11;" parent="1" vertex="1">
          <mxGeometry x="500" y="1481" width="90" height="50" as="geometry" />
        </mxCell>
        <mxCell id="VIoWFmFOxt6bn29Lq37C-32" value="&quot;Hey, one of you add this value to this claims payment schedule&quot;" style="text;html=1;strokeColor=none;fillColor=none;align=center;verticalAlign=middle;whiteSpace=wrap;rounded=0;fontSize=11;" parent="1" vertex="1">
          <mxGeometry x="700" y="1470" width="100" height="49" as="geometry" />
        </mxCell>
        <mxCell id="VIoWFmFOxt6bn29Lq37C-30" style="edgeStyle=orthogonalEdgeStyle;curved=1;rounded=0;orthogonalLoop=1;jettySize=auto;html=1;entryX=1;entryY=0.5;entryDx=0;entryDy=0;fontSize=11;exitX=0.5;exitY=1;exitDx=0;exitDy=0;" parent="1" source="VIoWFmFOxt6bn29Lq37C-5" target="VIoWFmFOxt6bn29Lq37C-6" edge="1">
          <mxGeometry relative="1" as="geometry" />
        </mxCell>
        <mxCell id="VIoWFmFOxt6bn29Lq37C-71" value="" style="edgeStyle=orthogonalEdgeStyle;curved=1;rounded=0;orthogonalLoop=1;jettySize=auto;html=1;fontSize=11;" parent="1" source="VIoWFmFOxt6bn29Lq37C-34" target="VIoWFmFOxt6bn29Lq37C-51" edge="1">
          <mxGeometry relative="1" as="geometry" />
        </mxCell>
        <mxCell id="VIoWFmFOxt6bn29Lq37C-34" value="claim service" style="ellipse;whiteSpace=wrap;html=1;aspect=fixed;fillColor=#dae8fc;strokeColor=#6c8ebf;" parent="1" vertex="1">
          <mxGeometry x="335" y="1811" width="80" height="80" as="geometry" />
        </mxCell>
        <mxCell id="VIoWFmFOxt6bn29Lq37C-72" value="" style="edgeStyle=orthogonalEdgeStyle;curved=1;rounded=0;orthogonalLoop=1;jettySize=auto;html=1;fontSize=11;" parent="1" source="VIoWFmFOxt6bn29Lq37C-36" target="VIoWFmFOxt6bn29Lq37C-70" edge="1">
          <mxGeometry relative="1" as="geometry" />
        </mxCell>
        <mxCell id="VIoWFmFOxt6bn29Lq37C-36" value="web" style="ellipse;whiteSpace=wrap;html=1;aspect=fixed;fillColor=#dae8fc;strokeColor=#6c8ebf;" parent="1" vertex="1">
          <mxGeometry x="40" y="1811" width="80" height="80" as="geometry" />
        </mxCell>
        <mxCell id="VIoWFmFOxt6bn29Lq37C-60" style="edgeStyle=orthogonalEdgeStyle;curved=1;rounded=0;orthogonalLoop=1;jettySize=auto;html=1;entryX=0;entryY=0.5;entryDx=0;entryDy=0;fontSize=11;" parent="1" source="VIoWFmFOxt6bn29Lq37C-38" target="VIoWFmFOxt6bn29Lq37C-59" edge="1">
          <mxGeometry relative="1" as="geometry" />
        </mxCell>
        <mxCell id="VIoWFmFOxt6bn29Lq37C-38" value="calculation service" style="ellipse;whiteSpace=wrap;html=1;aspect=fixed;fillColor=#dae8fc;strokeColor=#6c8ebf;" parent="1" vertex="1">
          <mxGeometry x="758.5" y="1757" width="80" height="80" as="geometry" />
        </mxCell>
        <mxCell id="VIoWFmFOxt6bn29Lq37C-39" value="payment service&lt;br&gt;(Node.js)" style="ellipse;whiteSpace=wrap;html=1;aspect=fixed;fillColor=#dae8fc;strokeColor=#6c8ebf;" parent="1" vertex="1">
          <mxGeometry x="758.5" y="1856" width="80" height="80" as="geometry" />
        </mxCell>
        <mxCell id="VIoWFmFOxt6bn29Lq37C-42" value="Event Demo Service" style="text;html=1;strokeColor=none;fillColor=none;align=left;verticalAlign=middle;whiteSpace=wrap;rounded=0;fontStyle=1" parent="1" vertex="1">
          <mxGeometry x="40" y="1726.5" width="200" height="20" as="geometry" />
        </mxCell>
        <mxCell id="VIoWFmFOxt6bn29Lq37C-43" value="payment service&lt;br&gt;(.Net Core)" style="ellipse;whiteSpace=wrap;html=1;aspect=fixed;fillColor=#dae8fc;strokeColor=#6c8ebf;" parent="1" vertex="1">
          <mxGeometry x="758.5" y="1956" width="80" height="80" as="geometry" />
        </mxCell>
        <mxCell id="VIoWFmFOxt6bn29Lq37C-64" style="edgeStyle=orthogonalEdgeStyle;curved=1;rounded=0;orthogonalLoop=1;jettySize=auto;html=1;entryX=0;entryY=0.5;entryDx=0;entryDy=0;dashed=1;fontSize=11;" parent="1" source="VIoWFmFOxt6bn29Lq37C-51" target="VIoWFmFOxt6bn29Lq37C-38" edge="1">
          <mxGeometry relative="1" as="geometry" />
        </mxCell>
        <mxCell id="VIoWFmFOxt6bn29Lq37C-65" style="edgeStyle=orthogonalEdgeStyle;curved=1;rounded=0;orthogonalLoop=1;jettySize=auto;html=1;entryX=0;entryY=0.5;entryDx=0;entryDy=0;dashed=1;fontSize=11;" parent="1" source="VIoWFmFOxt6bn29Lq37C-51" target="VIoWFmFOxt6bn29Lq37C-39" edge="1">
          <mxGeometry relative="1" as="geometry" />
        </mxCell>
        <mxCell id="VIoWFmFOxt6bn29Lq37C-66" style="edgeStyle=orthogonalEdgeStyle;curved=1;rounded=0;orthogonalLoop=1;jettySize=auto;html=1;entryX=0;entryY=0.5;entryDx=0;entryDy=0;dashed=1;fontSize=11;" parent="1" source="VIoWFmFOxt6bn29Lq37C-51" target="VIoWFmFOxt6bn29Lq37C-43" edge="1">
          <mxGeometry relative="1" as="geometry" />
        </mxCell>
        <mxCell id="VIoWFmFOxt6bn29Lq37C-51" value="&quot;A new claim has been validated&quot;" style="shape=hexagon;perimeter=hexagonPerimeter2;whiteSpace=wrap;html=1;fixedSize=1;fontSize=11;fillColor=#d5e8d4;strokeColor=#82b366;" parent="1" vertex="1">
          <mxGeometry x="445" y="1820.5" width="80" height="61" as="geometry" />
        </mxCell>
        <mxCell id="VIoWFmFOxt6bn29Lq37C-55" value="&quot;I will save it&quot;" style="text;html=1;strokeColor=none;fillColor=none;align=right;verticalAlign=middle;whiteSpace=wrap;rounded=0;fontSize=11;" parent="1" vertex="1">
          <mxGeometry x="240" y="1858.5" width="85" height="23" as="geometry" />
        </mxCell>
        <mxCell id="VIoWFmFOxt6bn29Lq37C-56" value="&quot;I will calculate it&quot;" style="text;html=1;strokeColor=none;fillColor=none;align=right;verticalAlign=middle;whiteSpace=wrap;rounded=0;fontSize=11;" parent="1" vertex="1">
          <mxGeometry x="662.5" y="1814" width="92.5" height="23" as="geometry" />
        </mxCell>
        <mxCell id="VIoWFmFOxt6bn29Lq37C-57" value="&quot;I will schedule a payment for it&quot;" style="text;html=1;strokeColor=none;fillColor=none;align=right;verticalAlign=middle;whiteSpace=wrap;rounded=0;fontSize=11;" parent="1" vertex="1">
          <mxGeometry x="653.75" y="1903" width="92.5" height="23" as="geometry" />
        </mxCell>
        <mxCell id="VIoWFmFOxt6bn29Lq37C-58" value="&quot;I will schedule a payment for it&quot;" style="text;html=1;strokeColor=none;fillColor=none;align=right;verticalAlign=middle;whiteSpace=wrap;rounded=0;fontSize=11;" parent="1" vertex="1">
          <mxGeometry x="650" y="2003" width="92.5" height="23" as="geometry" />
        </mxCell>
        <mxCell id="VIoWFmFOxt6bn29Lq37C-67" style="edgeStyle=orthogonalEdgeStyle;curved=1;rounded=0;orthogonalLoop=1;jettySize=auto;html=1;entryX=1;entryY=0.5;entryDx=0;entryDy=0;dashed=1;fontSize=11;exitX=0.5;exitY=1;exitDx=0;exitDy=0;" parent="1" source="VIoWFmFOxt6bn29Lq37C-59" target="VIoWFmFOxt6bn29Lq37C-39" edge="1">
          <mxGeometry relative="1" as="geometry" />
        </mxCell>
        <mxCell id="VIoWFmFOxt6bn29Lq37C-68" style="edgeStyle=orthogonalEdgeStyle;curved=1;rounded=0;orthogonalLoop=1;jettySize=auto;html=1;entryX=1;entryY=0.5;entryDx=0;entryDy=0;dashed=1;fontSize=11;exitX=0.5;exitY=1;exitDx=0;exitDy=0;" parent="1" source="VIoWFmFOxt6bn29Lq37C-59" target="VIoWFmFOxt6bn29Lq37C-43" edge="1">
          <mxGeometry relative="1" as="geometry" />
        </mxCell>
        <mxCell id="VIoWFmFOxt6bn29Lq37C-59" value="&quot;A calculation has completed!&quot;" style="shape=hexagon;perimeter=hexagonPerimeter2;whiteSpace=wrap;html=1;fixedSize=1;fontSize=11;fillColor=#d5e8d4;strokeColor=#82b366;" parent="1" vertex="1">
          <mxGeometry x="973.5" y="1766.5" width="80" height="61" as="geometry" />
        </mxCell>
        <mxCell id="VIoWFmFOxt6bn29Lq37C-61" value="&quot;I will add the value to the schedule&quot;" style="text;html=1;strokeColor=none;fillColor=none;align=left;verticalAlign=middle;whiteSpace=wrap;rounded=0;fontSize=11;" parent="1" vertex="1">
          <mxGeometry x="853.5" y="1901.25" width="105" height="26.5" as="geometry" />
        </mxCell>
        <mxCell id="VIoWFmFOxt6bn29Lq37C-62" value="&quot;I will add the value to the schedule&quot;" style="text;html=1;strokeColor=none;fillColor=none;align=left;verticalAlign=middle;whiteSpace=wrap;rounded=0;fontSize=11;" parent="1" vertex="1">
          <mxGeometry x="863.5" y="1999.5" width="105" height="26.5" as="geometry" />
        </mxCell>
        <mxCell id="VIoWFmFOxt6bn29Lq37C-73" value="" style="edgeStyle=orthogonalEdgeStyle;curved=1;rounded=0;orthogonalLoop=1;jettySize=auto;html=1;fontSize=11;dashed=1;" parent="1" source="VIoWFmFOxt6bn29Lq37C-70" target="VIoWFmFOxt6bn29Lq37C-34" edge="1">
          <mxGeometry relative="1" as="geometry" />
        </mxCell>
        <mxCell id="VIoWFmFOxt6bn29Lq37C-70" value="&quot;A new claim has been submitted&quot;" style="shape=hexagon;perimeter=hexagonPerimeter2;whiteSpace=wrap;html=1;fixedSize=1;fontSize=11;fillColor=#d5e8d4;strokeColor=#82b366;" parent="1" vertex="1">
          <mxGeometry x="170" y="1820.5" width="80" height="61" as="geometry" />
        </mxCell>
        <mxCell id="VIoWFmFOxt6bn29Lq37C-74" value="" style="edgeStyle=orthogonalEdgeStyle;curved=1;rounded=0;orthogonalLoop=1;jettySize=auto;html=1;fontSize=11;" parent="1" source="VIoWFmFOxt6bn29Lq37C-75" target="VIoWFmFOxt6bn29Lq37C-86" edge="1">
          <mxGeometry relative="1" as="geometry" />
        </mxCell>
        <mxCell id="VIoWFmFOxt6bn29Lq37C-75" value="claim service" style="ellipse;whiteSpace=wrap;html=1;aspect=fixed;fillColor=#dae8fc;strokeColor=#6c8ebf;" parent="1" vertex="1">
          <mxGeometry x="338.25" y="2120.5" width="80" height="80" as="geometry" />
        </mxCell>
        <mxCell id="VIoWFmFOxt6bn29Lq37C-76" value="" style="edgeStyle=orthogonalEdgeStyle;curved=1;rounded=0;orthogonalLoop=1;jettySize=auto;html=1;fontSize=11;" parent="1" source="VIoWFmFOxt6bn29Lq37C-77" target="VIoWFmFOxt6bn29Lq37C-97" edge="1">
          <mxGeometry relative="1" as="geometry" />
        </mxCell>
        <mxCell id="VIoWFmFOxt6bn29Lq37C-77" value="web" style="ellipse;whiteSpace=wrap;html=1;aspect=fixed;fillColor=#dae8fc;strokeColor=#6c8ebf;" parent="1" vertex="1">
          <mxGeometry x="43.25" y="2120.5" width="80" height="80" as="geometry" />
        </mxCell>
        <mxCell id="VIoWFmFOxt6bn29Lq37C-78" style="edgeStyle=orthogonalEdgeStyle;curved=1;rounded=0;orthogonalLoop=1;jettySize=auto;html=1;entryX=0;entryY=0.5;entryDx=0;entryDy=0;fontSize=11;" parent="1" source="VIoWFmFOxt6bn29Lq37C-79" target="VIoWFmFOxt6bn29Lq37C-93" edge="1">
          <mxGeometry relative="1" as="geometry" />
        </mxCell>
        <mxCell id="VIoWFmFOxt6bn29Lq37C-79" value="calculation service" style="ellipse;whiteSpace=wrap;html=1;aspect=fixed;fillColor=#dae8fc;strokeColor=#6c8ebf;" parent="1" vertex="1">
          <mxGeometry x="761.75" y="2066.5" width="80" height="80" as="geometry" />
        </mxCell>
        <mxCell id="VIoWFmFOxt6bn29Lq37C-80" value="payment service&lt;br&gt;(Node.js)" style="ellipse;whiteSpace=wrap;html=1;aspect=fixed;fillColor=#dae8fc;strokeColor=#6c8ebf;" parent="1" vertex="1">
          <mxGeometry x="761.75" y="2165.5" width="80" height="80" as="geometry" />
        </mxCell>
        <mxCell id="VIoWFmFOxt6bn29Lq37C-81" value="Event Demo Service" style="text;html=1;strokeColor=none;fillColor=none;align=left;verticalAlign=middle;whiteSpace=wrap;rounded=0;fontStyle=1" parent="1" vertex="1">
          <mxGeometry x="43.25" y="2036" width="200" height="20" as="geometry" />
        </mxCell>
        <mxCell id="VIoWFmFOxt6bn29Lq37C-82" value="payment service&lt;br&gt;(.Net Core)" style="ellipse;whiteSpace=wrap;html=1;aspect=fixed;fillColor=#dae8fc;strokeColor=#6c8ebf;" parent="1" vertex="1">
          <mxGeometry x="761.75" y="2265.5" width="80" height="80" as="geometry" />
        </mxCell>
        <mxCell id="VIoWFmFOxt6bn29Lq37C-83" style="edgeStyle=orthogonalEdgeStyle;curved=1;rounded=0;orthogonalLoop=1;jettySize=auto;html=1;entryX=0;entryY=0.5;entryDx=0;entryDy=0;dashed=1;fontSize=11;" parent="1" source="VIoWFmFOxt6bn29Lq37C-86" target="VIoWFmFOxt6bn29Lq37C-79" edge="1">
          <mxGeometry relative="1" as="geometry" />
        </mxCell>
        <mxCell id="VIoWFmFOxt6bn29Lq37C-84" style="edgeStyle=orthogonalEdgeStyle;curved=1;rounded=0;orthogonalLoop=1;jettySize=auto;html=1;entryX=0;entryY=0.5;entryDx=0;entryDy=0;dashed=1;fontSize=11;" parent="1" source="VIoWFmFOxt6bn29Lq37C-86" target="VIoWFmFOxt6bn29Lq37C-80" edge="1">
          <mxGeometry relative="1" as="geometry" />
        </mxCell>
        <mxCell id="VIoWFmFOxt6bn29Lq37C-85" style="edgeStyle=orthogonalEdgeStyle;curved=1;rounded=0;orthogonalLoop=1;jettySize=auto;html=1;entryX=0;entryY=0.5;entryDx=0;entryDy=0;dashed=1;fontSize=11;" parent="1" source="VIoWFmFOxt6bn29Lq37C-86" target="VIoWFmFOxt6bn29Lq37C-82" edge="1">
          <mxGeometry relative="1" as="geometry" />
        </mxCell>
        <mxCell id="VIoWFmFOxt6bn29Lq37C-86" value="ffc-demo-claim-valid" style="shape=hexagon;perimeter=hexagonPerimeter2;whiteSpace=wrap;html=1;fixedSize=1;fontSize=11;fillColor=#d5e8d4;strokeColor=#82b366;" parent="1" vertex="1">
          <mxGeometry x="448.25" y="2130" width="80" height="61" as="geometry" />
        </mxCell>
        <mxCell id="VIoWFmFOxt6bn29Lq37C-87" value="&quot;I will save it&quot;" style="text;html=1;strokeColor=none;fillColor=none;align=right;verticalAlign=middle;whiteSpace=wrap;rounded=0;fontSize=11;" parent="1" vertex="1">
          <mxGeometry x="243.25" y="2168" width="85" height="23" as="geometry" />
        </mxCell>
        <mxCell id="VIoWFmFOxt6bn29Lq37C-88" value="&quot;I will calculate it&quot;" style="text;html=1;strokeColor=none;fillColor=none;align=right;verticalAlign=middle;whiteSpace=wrap;rounded=0;fontSize=11;" parent="1" vertex="1">
          <mxGeometry x="665.75" y="2123.5" width="92.5" height="23" as="geometry" />
        </mxCell>
        <mxCell id="VIoWFmFOxt6bn29Lq37C-89" value="&quot;I will schedule a payment for it&quot;" style="text;html=1;strokeColor=none;fillColor=none;align=right;verticalAlign=middle;whiteSpace=wrap;rounded=0;fontSize=11;" parent="1" vertex="1">
          <mxGeometry x="657" y="2212.5" width="92.5" height="23" as="geometry" />
        </mxCell>
        <mxCell id="VIoWFmFOxt6bn29Lq37C-90" value="&quot;I will schedule a payment for it&quot;" style="text;html=1;strokeColor=none;fillColor=none;align=right;verticalAlign=middle;whiteSpace=wrap;rounded=0;fontSize=11;" parent="1" vertex="1">
          <mxGeometry x="653.25" y="2312.5" width="92.5" height="23" as="geometry" />
        </mxCell>
        <mxCell id="VIoWFmFOxt6bn29Lq37C-91" style="edgeStyle=orthogonalEdgeStyle;curved=1;rounded=0;orthogonalLoop=1;jettySize=auto;html=1;entryX=1;entryY=0.5;entryDx=0;entryDy=0;dashed=1;fontSize=11;exitX=0.5;exitY=1;exitDx=0;exitDy=0;" parent="1" source="VIoWFmFOxt6bn29Lq37C-93" target="VIoWFmFOxt6bn29Lq37C-80" edge="1">
          <mxGeometry relative="1" as="geometry" />
        </mxCell>
        <mxCell id="VIoWFmFOxt6bn29Lq37C-92" style="edgeStyle=orthogonalEdgeStyle;curved=1;rounded=0;orthogonalLoop=1;jettySize=auto;html=1;entryX=1;entryY=0.5;entryDx=0;entryDy=0;dashed=1;fontSize=11;exitX=0.5;exitY=1;exitDx=0;exitDy=0;" parent="1" source="VIoWFmFOxt6bn29Lq37C-93" target="VIoWFmFOxt6bn29Lq37C-82" edge="1">
          <mxGeometry relative="1" as="geometry" />
        </mxCell>
        <mxCell id="VIoWFmFOxt6bn29Lq37C-93" value="ffc-demo-claim-calculated" style="shape=hexagon;perimeter=hexagonPerimeter2;whiteSpace=wrap;html=1;fixedSize=1;fontSize=11;fillColor=#d5e8d4;strokeColor=#82b366;" parent="1" vertex="1">
          <mxGeometry x="976.75" y="2076" width="80" height="61" as="geometry" />
        </mxCell>
        <mxCell id="VIoWFmFOxt6bn29Lq37C-94" value="&quot;I will add the value to the schedule&quot;" style="text;html=1;strokeColor=none;fillColor=none;align=left;verticalAlign=middle;whiteSpace=wrap;rounded=0;fontSize=11;" parent="1" vertex="1">
          <mxGeometry x="856.75" y="2210.75" width="105" height="26.5" as="geometry" />
        </mxCell>
        <mxCell id="VIoWFmFOxt6bn29Lq37C-95" value="&quot;I will add the value to the schedule&quot;" style="text;html=1;strokeColor=none;fillColor=none;align=left;verticalAlign=middle;whiteSpace=wrap;rounded=0;fontSize=11;" parent="1" vertex="1">
          <mxGeometry x="866.75" y="2309" width="105" height="26.5" as="geometry" />
        </mxCell>
        <mxCell id="VIoWFmFOxt6bn29Lq37C-96" value="" style="edgeStyle=orthogonalEdgeStyle;curved=1;rounded=0;orthogonalLoop=1;jettySize=auto;html=1;fontSize=11;dashed=1;" parent="1" source="VIoWFmFOxt6bn29Lq37C-97" target="VIoWFmFOxt6bn29Lq37C-75" edge="1">
          <mxGeometry relative="1" as="geometry" />
        </mxCell>
        <mxCell id="VIoWFmFOxt6bn29Lq37C-97" value="ffc-demo-claim-new" style="shape=hexagon;perimeter=hexagonPerimeter2;whiteSpace=wrap;html=1;fixedSize=1;fontSize=11;fillColor=#d5e8d4;strokeColor=#82b366;" parent="1" vertex="1">
          <mxGeometry x="173.25" y="2130" width="80" height="61" as="geometry" />
        </mxCell>
        <mxCell id="GImEivbMr_3VR4Qioquo-1" value="Context" style="text;html=1;strokeColor=none;fillColor=none;align=left;verticalAlign=middle;whiteSpace=wrap;rounded=0;fontStyle=1" vertex="1" parent="1">
          <mxGeometry x="961.75" y="60" width="200" height="20" as="geometry" />
        </mxCell>
        <object placeholders="1" c4Name="Claimant" c4Type="Person" c4Description="A person claiming &#xa;financial support" label="&lt;b&gt;%c4Name%&lt;/b&gt;&lt;div&gt;[%c4Type%]&lt;/div&gt;&lt;br&gt;&lt;div&gt;%c4Description%&lt;/div&gt;" id="GImEivbMr_3VR4Qioquo-2">
          <mxCell style="html=1;dashed=0;whitespace=wrap;fillColor=#08427b;strokeColor=none;fontColor=#ffffff;shape=mxgraph.c4.person;align=center;metaEdit=1;points=[[0.5,0,0],[1,0.5,0],[1,0.75,0],[0.75,1,0],[0.5,1,0],[0.25,1,0],[0,0.75,0],[0,0.5,0]];metaData={&quot;c4Type&quot;:{&quot;editable&quot;:false}};" vertex="1" parent="1">
            <mxGeometry x="1091" y="87" width="138" height="140" as="geometry" />
          </mxCell>
        </object>
        <object placeholders="1" c4Name="Demo Service" c4Type="Software System" c4Description="Allows users to submit a new claim for calculation and payment scheduling" label="&lt;b&gt;%c4Name%&lt;/b&gt;&lt;div&gt;[%c4Type%]&lt;/div&gt;&lt;br&gt;&lt;div&gt;%c4Description%&lt;/div&gt;" id="GImEivbMr_3VR4Qioquo-3">
          <mxCell style="rounded=1;whiteSpace=wrap;html=1;labelBackgroundColor=none;fillColor=#1168BD;fontColor=#ffffff;align=center;arcSize=10;strokeColor=#1168BD;metaEdit=1;metaData={&quot;c4Type&quot;:{&quot;editable&quot;:false}};points=[[0.25,0,0],[0.5,0,0],[0.75,0,0],[1,0.25,0],[1,0.5,0],[1,0.75,0],[0.75,1,0],[0.5,1,0],[0.25,1,0],[0,0.75,0],[0,0.5,0],[0,0.25,0]];" vertex="1" parent="1">
            <mxGeometry x="1080" y="310" width="160" height="110.00000000000001" as="geometry" />
          </mxCell>
        </object>
        <object placeholders="1" c4Type="Relationship" c4Technology="Http" c4Description="Submits claims using" label="&lt;div style=&quot;text-align: left&quot;&gt;&lt;div style=&quot;text-align: center&quot;&gt;&lt;b&gt;%c4Description%&lt;/b&gt;&lt;/div&gt;&lt;div style=&quot;text-align: center&quot;&gt;[%c4Technology%]&lt;/div&gt;&lt;/div&gt;" id="GImEivbMr_3VR4Qioquo-6">
          <mxCell style="edgeStyle=none;rounded=0;html=1;jettySize=auto;orthogonalLoop=1;strokeColor=#707070;strokeWidth=2;fontColor=#707070;jumpStyle=none;dashed=1;metaEdit=1;metaData={&quot;c4Type&quot;:{&quot;editable&quot;:false}};exitX=0.5;exitY=1;exitDx=0;exitDy=0;exitPerimeter=0;" edge="1" parent="1" source="GImEivbMr_3VR4Qioquo-2">
            <mxGeometry width="160" relative="1" as="geometry">
              <mxPoint x="1001" y="400" as="sourcePoint" />
              <mxPoint x="1161" y="310" as="targetPoint" />
            </mxGeometry>
          </mxCell>
        </object>
        <mxCell id="GImEivbMr_3VR4Qioquo-11" value="Container" style="text;html=1;strokeColor=none;fillColor=none;align=left;verticalAlign=middle;whiteSpace=wrap;rounded=0;fontStyle=1" vertex="1" parent="1">
          <mxGeometry x="950" y="450" width="200" height="20" as="geometry" />
        </mxCell>
        <object placeholders="1" c4Name="Payment support" c4Type="Person" c4Description="An internal user &#xa;supporting payment&#xa;scheduling" label="&lt;b&gt;%c4Name%&lt;/b&gt;&lt;div&gt;[%c4Type%]&lt;/div&gt;&lt;br&gt;&lt;div&gt;%c4Description%&lt;/div&gt;" id="GImEivbMr_3VR4Qioquo-12">
          <mxCell style="html=1;dashed=0;whitespace=wrap;fillColor=#08427b;strokeColor=none;fontColor=#ffffff;shape=mxgraph.c4.person;align=center;metaEdit=1;points=[[0.5,0,0],[1,0.5,0],[1,0.75,0],[0.75,1,0],[0.5,1,0],[0.25,1,0],[0,0.75,0],[0,0.5,0]];metaData={&quot;c4Type&quot;:{&quot;editable&quot;:false}};" vertex="1" parent="1">
            <mxGeometry x="1310" y="87" width="138" height="140" as="geometry" />
          </mxCell>
        </object>
        <object placeholders="1" c4Type="Relationship" c4Technology="Http" c4Description="Views payment schedule" label="&lt;div style=&quot;text-align: left&quot;&gt;&lt;div style=&quot;text-align: center&quot;&gt;&lt;b&gt;%c4Description%&lt;/b&gt;&lt;/div&gt;&lt;div style=&quot;text-align: center&quot;&gt;[%c4Technology%]&lt;/div&gt;&lt;/div&gt;" id="GImEivbMr_3VR4Qioquo-13">
          <mxCell style="edgeStyle=none;rounded=0;html=1;entryX=1;entryY=0.5;jettySize=auto;orthogonalLoop=1;strokeColor=#707070;strokeWidth=2;fontColor=#707070;jumpStyle=none;dashed=1;metaEdit=1;metaData={&quot;c4Type&quot;:{&quot;editable&quot;:false}};exitX=0.5;exitY=1;exitDx=0;exitDy=0;exitPerimeter=0;entryDx=0;entryDy=0;entryPerimeter=0;" edge="1" parent="1" source="GImEivbMr_3VR4Qioquo-12" target="GImEivbMr_3VR4Qioquo-3">
            <mxGeometry width="160" relative="1" as="geometry">
              <mxPoint x="1110" y="410" as="sourcePoint" />
              <mxPoint x="1270" y="410" as="targetPoint" />
            </mxGeometry>
          </mxCell>
        </object>
        <object placeholders="1" c4Name="Claimant" c4Type="Person" c4Description="A person claiming &#xa;financial support" label="&lt;b&gt;%c4Name%&lt;/b&gt;&lt;div&gt;[%c4Type%]&lt;/div&gt;&lt;br&gt;&lt;div&gt;%c4Description%&lt;/div&gt;" id="GImEivbMr_3VR4Qioquo-15">
          <mxCell style="html=1;dashed=0;whitespace=wrap;fillColor=#08427b;strokeColor=none;fontColor=#ffffff;shape=mxgraph.c4.person;align=center;metaEdit=1;points=[[0.5,0,0],[1,0.5,0],[1,0.75,0],[0.75,1,0],[0.5,1,0],[0.25,1,0],[0,0.75,0],[0,0.5,0]];metaData={&quot;c4Type&quot;:{&quot;editable&quot;:false}};" vertex="1" parent="1">
            <mxGeometry x="1229.5" y="490" width="138" height="140" as="geometry" />
          </mxCell>
        </object>
        <object placeholders="1" c4Type="Relationship" c4Technology="Http" c4Description="Submits claims using" label="&lt;div style=&quot;text-align: left&quot;&gt;&lt;div style=&quot;text-align: center&quot;&gt;&lt;b&gt;%c4Description%&lt;/b&gt;&lt;/div&gt;&lt;div style=&quot;text-align: center&quot;&gt;[%c4Technology%]&lt;/div&gt;&lt;/div&gt;" id="GImEivbMr_3VR4Qioquo-17">
          <mxCell style="edgeStyle=none;rounded=0;html=1;jettySize=auto;orthogonalLoop=1;strokeColor=#707070;strokeWidth=2;fontColor=#707070;jumpStyle=none;dashed=1;metaEdit=1;metaData={&quot;c4Type&quot;:{&quot;editable&quot;:false}};exitX=0.5;exitY=1;exitDx=0;exitDy=0;exitPerimeter=0;entryX=0.5;entryY=0;entryDx=0;entryDy=0;entryPerimeter=0;" edge="1" parent="1" source="GImEivbMr_3VR4Qioquo-15" target="GImEivbMr_3VR4Qioquo-23">
            <mxGeometry width="160" relative="1" as="geometry">
              <mxPoint x="1139.5" y="803" as="sourcePoint" />
              <mxPoint x="1299.5" y="713" as="targetPoint" />
            </mxGeometry>
          </mxCell>
        </object>
        <object placeholders="1" c4Name="Payment support" c4Type="Person" c4Description="An internal user &#xa;supporting payment&#xa;scheduling" label="&lt;b&gt;%c4Name%&lt;/b&gt;&lt;div&gt;[%c4Type%]&lt;/div&gt;&lt;br&gt;&lt;div&gt;%c4Description%&lt;/div&gt;" id="GImEivbMr_3VR4Qioquo-18">
          <mxCell style="html=1;dashed=0;whitespace=wrap;fillColor=#08427b;strokeColor=none;fontColor=#ffffff;shape=mxgraph.c4.person;align=center;metaEdit=1;points=[[0.5,0,0],[1,0.5,0],[1,0.75,0],[0.75,1,0],[0.5,1,0],[0.25,1,0],[0,0.75,0],[0,0.5,0]];metaData={&quot;c4Type&quot;:{&quot;editable&quot;:false}};" vertex="1" parent="1">
            <mxGeometry x="1591" y="490" width="138" height="140" as="geometry" />
          </mxCell>
        </object>
        <object placeholders="1" c4Type="Relationship" c4Technology="Http" c4Description="Views payment schedule" label="&lt;div style=&quot;text-align: left&quot;&gt;&lt;div style=&quot;text-align: center&quot;&gt;&lt;b&gt;%c4Description%&lt;/b&gt;&lt;/div&gt;&lt;div style=&quot;text-align: center&quot;&gt;[%c4Technology%]&lt;/div&gt;&lt;/div&gt;" id="GImEivbMr_3VR4Qioquo-19">
          <mxCell style="edgeStyle=none;rounded=0;html=1;jettySize=auto;orthogonalLoop=1;strokeColor=#707070;strokeWidth=2;fontColor=#707070;jumpStyle=none;dashed=1;metaEdit=1;metaData={&quot;c4Type&quot;:{&quot;editable&quot;:false}};exitX=0.5;exitY=1;exitDx=0;exitDy=0;exitPerimeter=0;" edge="1" parent="1" source="GImEivbMr_3VR4Qioquo-18" target="GImEivbMr_3VR4Qioquo-24">
            <mxGeometry width="160" relative="1" as="geometry">
              <mxPoint x="1391" y="813" as="sourcePoint" />
              <mxPoint x="1521" y="768" as="targetPoint" />
            </mxGeometry>
          </mxCell>
        </object>
        <object placeholders="1" c4Name="Web" c4Type="Container" c4Technology="Node.js" c4Description="Allows submission of new claim" label="&lt;b&gt;%c4Name%&lt;/b&gt;&lt;div&gt;[%c4Type%: %c4Technology%]&lt;/div&gt;&lt;br&gt;&lt;div&gt;%c4Description%&lt;/div&gt;" id="GImEivbMr_3VR4Qioquo-23">
          <mxCell style="rounded=1;whiteSpace=wrap;html=1;labelBackgroundColor=none;fillColor=#85BBF0;fontColor=#ffffff;align=center;arcSize=10;strokeColor=#78A8D8;metaEdit=1;metaData={&quot;c4Type&quot;:{&quot;editable&quot;:false}};points=[[0.25,0,0],[0.5,0,0],[0.75,0,0],[1,0.25,0],[1,0.5,0],[1,0.75,0],[0.75,1,0],[0.5,1,0],[0.25,1,0],[0,0.75,0],[0,0.5,0],[0,0.25,0]];dashed=1;" vertex="1" parent="1">
            <mxGeometry x="1218.5" y="730" width="160" height="110.00000000000001" as="geometry" />
          </mxCell>
        </object>
        <object placeholders="1" c4Name="Payment Web" c4Type="Container" c4Technology="Node.js" c4Description="Allows viewing of payment schedule" label="&lt;b&gt;%c4Name%&lt;/b&gt;&lt;div&gt;[%c4Type%: %c4Technology%]&lt;/div&gt;&lt;br&gt;&lt;div&gt;%c4Description%&lt;/div&gt;" id="GImEivbMr_3VR4Qioquo-24">
          <mxCell style="rounded=1;whiteSpace=wrap;html=1;labelBackgroundColor=none;fillColor=#85BBF0;fontColor=#ffffff;align=center;arcSize=10;strokeColor=#78A8D8;metaEdit=1;metaData={&quot;c4Type&quot;:{&quot;editable&quot;:false}};points=[[0.25,0,0],[0.5,0,0],[0.75,0,0],[1,0.25,0],[1,0.5,0],[1,0.75,0],[0.75,1,0],[0.5,1,0],[0.25,1,0],[0,0.75,0],[0,0.5,0],[0,0.25,0]];dashed=1;" vertex="1" parent="1">
            <mxGeometry x="1580" y="730" width="160" height="110.00000000000001" as="geometry" />
          </mxCell>
        </object>
        <object placeholders="1" c4Name="Claim Service" c4Type="Container" c4Technology="Node.js" c4Description="Validates and persists claims" label="&lt;b&gt;%c4Name%&lt;/b&gt;&lt;div&gt;[%c4Type%: %c4Technology%]&lt;/div&gt;&lt;br&gt;&lt;div&gt;%c4Description%&lt;/div&gt;" id="GImEivbMr_3VR4Qioquo-25">
          <mxCell style="rounded=1;whiteSpace=wrap;html=1;labelBackgroundColor=none;fillColor=#85BBF0;fontColor=#ffffff;align=center;arcSize=10;strokeColor=#78A8D8;metaEdit=1;metaData={&quot;c4Type&quot;:{&quot;editable&quot;:false}};points=[[0.25,0,0],[0.5,0,0],[0.75,0,0],[1,0.25,0],[1,0.5,0],[1,0.75,0],[0.75,1,0],[0.5,1,0],[0.25,1,0],[0,0.75,0],[0,0.5,0],[0,0.25,0]];dashed=1;" vertex="1" parent="1">
            <mxGeometry x="1218.5" y="932" width="160" height="110.00000000000001" as="geometry" />
          </mxCell>
        </object>
        <object placeholders="1" c4Type="Relationship" c4Technology="Event" c4Description="Publishes claim event for" label="&lt;div style=&quot;text-align: left&quot;&gt;&lt;div style=&quot;text-align: center&quot;&gt;&lt;b&gt;%c4Description%&lt;/b&gt;&lt;/div&gt;&lt;div style=&quot;text-align: center&quot;&gt;[%c4Technology%]&lt;/div&gt;&lt;/div&gt;" id="GImEivbMr_3VR4Qioquo-26">
          <mxCell style="edgeStyle=none;rounded=0;html=1;entryX=0.5;entryY=0;jettySize=auto;orthogonalLoop=1;strokeColor=#707070;strokeWidth=2;fontColor=#707070;jumpStyle=none;dashed=1;metaEdit=1;metaData={&quot;c4Type&quot;:{&quot;editable&quot;:false}};exitX=0.5;exitY=1;exitDx=0;exitDy=0;exitPerimeter=0;entryDx=0;entryDy=0;entryPerimeter=0;" edge="1" parent="1" source="GImEivbMr_3VR4Qioquo-23" target="GImEivbMr_3VR4Qioquo-25">
            <mxGeometry width="160" relative="1" as="geometry">
              <mxPoint x="1258.5" y="810" as="sourcePoint" />
              <mxPoint x="1418.5" y="810" as="targetPoint" />
            </mxGeometry>
          </mxCell>
        </object>
        <object placeholders="1" c4Type="Database" c4Technology="PostgreSQL" c4Description="Stores valid claims" label="%c4Type%&lt;div&gt;[Container:&amp;nbsp;%c4Technology%]&lt;/div&gt;&lt;br&gt;&lt;div&gt;%c4Description%&lt;/div&gt;" id="GImEivbMr_3VR4Qioquo-27">
          <mxCell style="shape=cylinder;whiteSpace=wrap;html=1;boundedLbl=1;rounded=0;labelBackgroundColor=none;fillColor=#438DD5;fontSize=12;fontColor=#ffffff;align=center;strokeColor=#3C7FC0;metaEdit=1;points=[[0.5,0,0],[1,0.25,0],[1,0.5,0],[1,0.75,0],[0.5,1,0],[0,0.75,0],[0,0.5,0],[0,0.25,0]];metaData={&quot;c4Type&quot;:{&quot;editable&quot;:false}};dashed=1;" vertex="1" parent="1">
            <mxGeometry x="920" y="917" width="160" height="140" as="geometry" />
          </mxCell>
        </object>
        <object placeholders="1" c4Type="Relationship" c4Technology="TCP" c4Description="Reads and writes to" label="&lt;div style=&quot;text-align: left&quot;&gt;&lt;div style=&quot;text-align: center&quot;&gt;&lt;b&gt;%c4Description%&lt;/b&gt;&lt;/div&gt;&lt;div style=&quot;text-align: center&quot;&gt;[%c4Technology%]&lt;/div&gt;&lt;/div&gt;" id="GImEivbMr_3VR4Qioquo-28">
          <mxCell style="edgeStyle=none;rounded=0;html=1;jettySize=auto;orthogonalLoop=1;strokeColor=#707070;strokeWidth=2;fontColor=#707070;jumpStyle=none;dashed=1;metaEdit=1;metaData={&quot;c4Type&quot;:{&quot;editable&quot;:false}};exitX=0;exitY=0.5;exitDx=0;exitDy=0;exitPerimeter=0;" edge="1" parent="1" source="GImEivbMr_3VR4Qioquo-25" target="GImEivbMr_3VR4Qioquo-27">
            <mxGeometry width="160" relative="1" as="geometry">
              <mxPoint x="1110" y="1010" as="sourcePoint" />
              <mxPoint x="1270" y="1010" as="targetPoint" />
            </mxGeometry>
          </mxCell>
        </object>
        <object placeholders="1" c4Name="Payment Service" c4Type="Container" c4Technology="Node.js/.NET Core" c4Description="Calculates payment schedule" label="&lt;b&gt;%c4Name%&lt;/b&gt;&lt;div&gt;[%c4Type%: %c4Technology%]&lt;/div&gt;&lt;br&gt;&lt;div&gt;%c4Description%&lt;/div&gt;" id="GImEivbMr_3VR4Qioquo-29">
          <mxCell style="rounded=1;whiteSpace=wrap;html=1;labelBackgroundColor=none;fillColor=#85BBF0;fontColor=#ffffff;align=center;arcSize=10;strokeColor=#78A8D8;metaEdit=1;metaData={&quot;c4Type&quot;:{&quot;editable&quot;:false}};points=[[0.25,0,0],[0.5,0,0],[0.75,0,0],[1,0.25,0],[1,0.5,0],[1,0.75,0],[0.75,1,0],[0.5,1,0],[0.25,1,0],[0,0.75,0],[0,0.5,0],[0,0.25,0]];dashed=1;" vertex="1" parent="1">
            <mxGeometry x="1580" y="932" width="160" height="110.00000000000001" as="geometry" />
          </mxCell>
        </object>
        <object placeholders="1" c4Type="Relationship" c4Technology="Event" c4Description="Publishes schedule event for" label="&lt;div style=&quot;text-align: left&quot;&gt;&lt;div style=&quot;text-align: center&quot;&gt;&lt;b&gt;%c4Description%&lt;/b&gt;&lt;/div&gt;&lt;div style=&quot;text-align: center&quot;&gt;[%c4Technology%]&lt;/div&gt;&lt;/div&gt;" id="GImEivbMr_3VR4Qioquo-31">
          <mxCell style="edgeStyle=none;rounded=0;html=1;entryX=0;entryY=0.5;jettySize=auto;orthogonalLoop=1;strokeColor=#707070;strokeWidth=2;fontColor=#707070;jumpStyle=none;dashed=1;metaEdit=1;metaData={&quot;c4Type&quot;:{&quot;editable&quot;:false}};exitX=1;exitY=0.5;exitDx=0;exitDy=0;exitPerimeter=0;entryDx=0;entryDy=0;entryPerimeter=0;" edge="1" parent="1" source="GImEivbMr_3VR4Qioquo-25" target="GImEivbMr_3VR4Qioquo-29">
            <mxGeometry width="160" relative="1" as="geometry">
              <mxPoint x="1110" y="980" as="sourcePoint" />
              <mxPoint x="1270" y="980" as="targetPoint" />
            </mxGeometry>
          </mxCell>
        </object>
        <object placeholders="1" c4Name="Calculation Service" c4Type="Container" c4Technology="Node.js" c4Description="Calculates claim value" label="&lt;b&gt;%c4Name%&lt;/b&gt;&lt;div&gt;[%c4Type%: %c4Technology%]&lt;/div&gt;&lt;br&gt;&lt;div&gt;%c4Description%&lt;/div&gt;" id="GImEivbMr_3VR4Qioquo-33">
          <mxCell style="rounded=1;whiteSpace=wrap;html=1;labelBackgroundColor=none;fillColor=#85BBF0;fontColor=#ffffff;align=center;arcSize=10;strokeColor=#78A8D8;metaEdit=1;metaData={&quot;c4Type&quot;:{&quot;editable&quot;:false}};points=[[0.25,0,0],[0.5,0,0],[0.75,0,0],[1,0.25,0],[1,0.5,0],[1,0.75,0],[0.75,1,0],[0.5,1,0],[0.25,1,0],[0,0.75,0],[0,0.5,0],[0,0.25,0]];dashed=1;" vertex="1" parent="1">
            <mxGeometry x="1218.5" y="1125" width="160" height="110.00000000000001" as="geometry" />
          </mxCell>
        </object>
        <object placeholders="1" c4Type="Relationship" c4Technology="Event" c4Description="Publishes calculation event for" label="&lt;div style=&quot;text-align: left&quot;&gt;&lt;div style=&quot;text-align: center&quot;&gt;&lt;b&gt;%c4Description%&lt;/b&gt;&lt;/div&gt;&lt;div style=&quot;text-align: center&quot;&gt;[%c4Technology%]&lt;/div&gt;&lt;/div&gt;" id="GImEivbMr_3VR4Qioquo-34">
          <mxCell style="edgeStyle=none;rounded=0;html=1;entryX=0.5;entryY=0;jettySize=auto;orthogonalLoop=1;strokeColor=#707070;strokeWidth=2;fontColor=#707070;jumpStyle=none;dashed=1;metaEdit=1;metaData={&quot;c4Type&quot;:{&quot;editable&quot;:false}};exitX=0.5;exitY=1;exitDx=0;exitDy=0;exitPerimeter=0;entryDx=0;entryDy=0;entryPerimeter=0;" edge="1" parent="1" source="GImEivbMr_3VR4Qioquo-25" target="GImEivbMr_3VR4Qioquo-33">
            <mxGeometry width="160" relative="1" as="geometry">
              <mxPoint x="1388.5" y="997" as="sourcePoint" />
              <mxPoint x="1590" y="997" as="targetPoint" />
            </mxGeometry>
          </mxCell>
        </object>
        <object placeholders="1" c4Type="Relationship" c4Technology="Event" c4Description="Publishes payment event for" label="&lt;div style=&quot;text-align: left&quot;&gt;&lt;div style=&quot;text-align: center&quot;&gt;&lt;b&gt;%c4Description%&lt;/b&gt;&lt;/div&gt;&lt;div style=&quot;text-align: center&quot;&gt;[%c4Technology%]&lt;/div&gt;&lt;/div&gt;" id="GImEivbMr_3VR4Qioquo-35">
          <mxCell style="edgeStyle=none;rounded=0;html=1;entryX=0.5;entryY=1;jettySize=auto;orthogonalLoop=1;strokeColor=#707070;strokeWidth=2;fontColor=#707070;jumpStyle=none;dashed=1;metaEdit=1;metaData={&quot;c4Type&quot;:{&quot;editable&quot;:false}};exitX=1;exitY=0.5;exitDx=0;exitDy=0;exitPerimeter=0;entryDx=0;entryDy=0;entryPerimeter=0;" edge="1" parent="1" source="GImEivbMr_3VR4Qioquo-33" target="GImEivbMr_3VR4Qioquo-29">
            <mxGeometry width="160" relative="1" as="geometry">
              <mxPoint x="1398.5" y="1007" as="sourcePoint" />
              <mxPoint x="1600" y="1007" as="targetPoint" />
            </mxGeometry>
          </mxCell>
        </object>
        <object placeholders="1" c4Type="Relationship" c4Technology="Event" c4Description="Makes API calls to" label="&lt;div style=&quot;text-align: left&quot;&gt;&lt;div style=&quot;text-align: center&quot;&gt;&lt;b&gt;%c4Description%&lt;/b&gt;&lt;/div&gt;&lt;div style=&quot;text-align: center&quot;&gt;[%c4Technology%]&lt;/div&gt;&lt;/div&gt;" id="GImEivbMr_3VR4Qioquo-36">
          <mxCell style="edgeStyle=none;rounded=0;html=1;entryX=0.5;entryY=0;jettySize=auto;orthogonalLoop=1;strokeColor=#707070;strokeWidth=2;fontColor=#707070;jumpStyle=none;dashed=1;metaEdit=1;metaData={&quot;c4Type&quot;:{&quot;editable&quot;:false}};exitX=0.5;exitY=1;exitDx=0;exitDy=0;exitPerimeter=0;entryDx=0;entryDy=0;entryPerimeter=0;" edge="1" parent="1" source="GImEivbMr_3VR4Qioquo-24" target="GImEivbMr_3VR4Qioquo-29">
            <mxGeometry width="160" relative="1" as="geometry">
              <mxPoint x="1408.5" y="1017" as="sourcePoint" />
              <mxPoint x="1610" y="1017" as="targetPoint" />
            </mxGeometry>
          </mxCell>
        </object>
        <object placeholders="1" c4Type="Database" c4Technology="PostgreSQL" c4Description="Stores payment schedule" label="%c4Type%&lt;div&gt;[Container:&amp;nbsp;%c4Technology%]&lt;/div&gt;&lt;br&gt;&lt;div&gt;%c4Description%&lt;/div&gt;" id="GImEivbMr_3VR4Qioquo-37">
          <mxCell style="shape=cylinder;whiteSpace=wrap;html=1;boundedLbl=1;rounded=0;labelBackgroundColor=none;fillColor=#438DD5;fontSize=12;fontColor=#ffffff;align=center;strokeColor=#3C7FC0;metaEdit=1;points=[[0.5,0,0],[1,0.25,0],[1,0.5,0],[1,0.75,0],[0.5,1,0],[0,0.75,0],[0,0.5,0],[0,0.25,0]];metaData={&quot;c4Type&quot;:{&quot;editable&quot;:false}};dashed=1;" vertex="1" parent="1">
            <mxGeometry x="1880" y="917" width="160" height="140" as="geometry" />
          </mxCell>
        </object>
        <object placeholders="1" c4Type="Relationship" c4Technology="TCP" c4Description="Reads and writes to" label="&lt;div style=&quot;text-align: left&quot;&gt;&lt;div style=&quot;text-align: center&quot;&gt;&lt;b&gt;%c4Description%&lt;/b&gt;&lt;/div&gt;&lt;div style=&quot;text-align: center&quot;&gt;[%c4Technology%]&lt;/div&gt;&lt;/div&gt;" id="GImEivbMr_3VR4Qioquo-38">
          <mxCell style="edgeStyle=none;rounded=0;html=1;jettySize=auto;orthogonalLoop=1;strokeColor=#707070;strokeWidth=2;fontColor=#707070;jumpStyle=none;dashed=1;metaEdit=1;metaData={&quot;c4Type&quot;:{&quot;editable&quot;:false}};exitX=1;exitY=0.5;exitDx=0;exitDy=0;exitPerimeter=0;entryX=0;entryY=0.5;entryDx=0;entryDy=0;entryPerimeter=0;" edge="1" parent="1" source="GImEivbMr_3VR4Qioquo-29" target="GImEivbMr_3VR4Qioquo-37">
            <mxGeometry width="160" relative="1" as="geometry">
              <mxPoint x="1228.5" y="997" as="sourcePoint" />
              <mxPoint x="1090" y="997" as="targetPoint" />
            </mxGeometry>
          </mxCell>
        </object>
      </root>
    </mxGraphModel>
  </diagram>
</mxfile>
